<svg xmlns="http://www.w3.org/2000/svg" xmlns:xlink="http://www.w3.org/1999/xlink" contentStyleType="text/css" data-diagram-type="DESCRIPTION" height="678px" preserveAspectRatio="none" style="width:1930px;height:678px;background:#FFFFFF;" version="1.1" viewBox="0 0 1930 678" width="1930px" zoomAndPan="magnify"><title>Arquitetura da Aplica&#231;&#227;o CRUD &#8212; Pessoas (Localhost)</title><defs/><g><g class="title" data-source-line="1"><text fill="#000000" font-family="sans-serif" font-size="14" font-weight="bold" lengthAdjust="spacing" textLength="426.3574" x="744.8763" y="22.9951">Arquitetura da Aplica&#231;&#227;o CRUD &#8212; Pessoas (Localhost)</text></g><!--cluster LOCAL--><g class="cluster" data-entity="LOCAL" data-source-line="22" data-uid="ent0002" id="cluster_LOCAL"><polygon fill="none" points="344.68,193.2569,354.68,183.2569,1913.11,183.2569,1913.11,459.2569,1903.11,469.2569,344.68,469.2569,344.68,193.2569" style="stroke:#333333;stroke-width:1;"/><line style="stroke:#333333;stroke-width:1;" x1="1903.11" x2="1913.11" y1="193.2569" y2="183.2569"/><line style="stroke:#333333;stroke-width:1;" x1="344.68" x2="1903.11" y1="193.2569" y2="193.2569"/><line style="stroke:#333333;stroke-width:1;" x1="1903.11" x2="1903.11" y1="193.2569" y2="469.2569"/><text fill="#000000" font-family="sans-serif" font-size="14" font-weight="bold" lengthAdjust="spacing" textLength="113.5381" x="1068.126" y="209.252">M&#225;quina Local</text><text fill="#000000" font-family="sans-serif" font-size="14" font-weight="bold" lengthAdjust="spacing" textLength="84.3691" x="1082.7104" y="225.5489">(localhost)</text></g><!--cluster BROWSER--><g class="cluster" data-entity="BROWSER" data-source-line="25" data-uid="ent0003" id="cluster_BROWSER"><polygon fill="none" points="376.68,277.2569,386.68,267.2569,577.45,267.2569,577.45,381.2569,567.45,391.2569,376.68,391.2569,376.68,277.2569" style="stroke:#333333;stroke-width:1;"/><line style="stroke:#333333;stroke-width:1;" x1="567.45" x2="577.45" y1="277.2569" y2="267.2569"/><line style="stroke:#333333;stroke-width:1;" x1="376.68" x2="567.45" y1="277.2569" y2="277.2569"/><line style="stroke:#333333;stroke-width:1;" x1="567.45" x2="567.45" y1="277.2569" y2="391.2569"/><text fill="#000000" font-family="sans-serif" font-size="14" font-weight="bold" lengthAdjust="spacing" textLength="125.6309" x="410.2496" y="293.252">Navegador Web</text></g><!--cluster APP--><g class="cluster" data-entity="APP" data-source-line="30" data-uid="ent0005" id="cluster_APP"><polygon fill="none" points="776.12,273.2569,786.12,263.2569,1144.73,263.2569,1144.73,393.2569,1134.73,403.2569,776.12,403.2569,776.12,273.2569" style="stroke:#333333;stroke-width:1;"/><line style="stroke:#333333;stroke-width:1;" x1="1134.73" x2="1144.73" y1="273.2569" y2="263.2569"/><line style="stroke:#333333;stroke-width:1;" x1="776.12" x2="1134.73" y1="273.2569" y2="273.2569"/><line style="stroke:#333333;stroke-width:1;" x1="1134.73" x2="1134.73" y1="273.2569" y2="403.2569"/><text fill="#000000" font-family="sans-serif" font-size="14" font-weight="bold" lengthAdjust="spacing" textLength="171.7803" x="870.5349" y="289.252">Servidor de Aplica&#231;&#227;o</text><text fill="#000000" font-family="sans-serif" font-size="14" font-weight="bold" lengthAdjust="spacing" textLength="293.002" x="809.924" y="305.5489">Python 3 (Flask/FastAPI equivalente)</text></g><!--cluster MYSQL--><g class="cluster" data-entity="MYSQL" data-source-line="35" data-uid="ent0007" id="cluster_MYSQL"><path d="M1378.22,281.2569 C1378.22,271.2569 1625.665,271.2569 1625.665,271.2569 C1625.665,271.2569 1873.11,271.2569 1873.11,281.2569 L1873.11,419.2569 C1873.11,429.2569 1625.665,429.2569 1625.665,429.2569 C1625.665,429.2569 1378.22,429.2569 1378.22,419.2569 L1378.22,281.2569" fill="#F9F9F9" style="stroke:#333333;stroke-width:1;"/><path d="M1378.22,281.2569 C1378.22,291.2569 1625.665,291.2569 1625.665,291.2569 C1625.665,291.2569 1873.11,291.2569 1873.11,281.2569" fill="none" style="stroke:#333333;stroke-width:1;"/><text fill="#000000" font-family="sans-serif" font-size="14" font-weight="bold" lengthAdjust="spacing" textLength="68.5781" x="1591.3759" y="306.252">MySQL 8</text></g><!--entity CLIENTE--><g class="entity" data-entity="CLIENTE" data-source-line="26" data-uid="ent0004" id="entity_CLIENTE"><rect fill="#F1F1F1" height="68.8906" rx="2.5" ry="2.5" style="stroke:#181818;stroke-width:0.5;" width="149.7666" x="401.68" y="306.8169"/><text fill="#000000" font-family="sans-serif" font-size="14" font-style="italic" lengthAdjust="spacing" textLength="85.5244" x="433.8011" y="329.812">&#171;Front-End&#187;</text><text fill="#000000" font-family="sans-serif" font-size="14" lengthAdjust="spacing" textLength="84.9365" x="411.68" y="346.1089">Cliente Web</text><text fill="#000000" font-family="sans-serif" font-size="14" lengthAdjust="spacing" textLength="129.7666" x="411.68" y="362.4057">HTML + JavaScript</text></g><!--entity API--><g class="entity" data-entity="API" data-source-line="31" data-uid="ent0006" id="entity_API"><rect fill="#F1F1F1" height="68.8906" rx="2.5" ry="2.5" style="stroke:#181818;stroke-width:0.5;" width="82.6104" x="919.12" y="318.8169"/><text fill="#000000" font-family="sans-serif" font-size="14" font-style="italic" lengthAdjust="spacing" textLength="53.1426" x="933.8539" y="341.812">&#171;REST&#187;</text><text fill="#000000" font-family="sans-serif" font-size="14" lengthAdjust="spacing" textLength="62.6104" x="929.12" y="358.1089">API REST</text><text fill="#000000" font-family="sans-serif" font-size="14" lengthAdjust="spacing" textLength="61.2432" x="929.12" y="374.4057">/pessoas</text></g><!--entity ESQ--><g class="entity" data-entity="ESQ" data-source-line="36" data-uid="ent0008" id="entity_ESQ"><rect fill="#F1F1F1" height="36.2969" rx="6" ry="6" style="stroke:#333333;stroke-width:0.5;" width="177.5205" x="1402.22" y="345.1069"/><text fill="#000000" font-family="sans-serif" font-size="14" lengthAdjust="spacing" textLength="69.4463" x="1412.22" y="368.102">Esquema:</text><text fill="#000000" font-family="sans-serif" font-size="14" font-weight="bold" lengthAdjust="spacing" textLength="83.624" x="1486.1165" y="368.102">pessoasdb</text></g><!--entity TBL--><g class="entity" data-entity="TBL" data-source-line="37" data-uid="ent0009" id="entity_TBL"><rect fill="#F1F1F1" height="68.8906" rx="6" ry="6" style="stroke:#333333;stroke-width:0.5;" width="196.6064" x="1652.5" y="328.8169"/><text fill="#000000" font-family="sans-serif" font-size="14" lengthAdjust="spacing" textLength="51.8164" x="1662.5" y="351.812">Tabela:</text><text fill="#000000" font-family="sans-serif" font-size="14" font-weight="bold" lengthAdjust="spacing" textLength="63.5811" x="1718.7666" y="351.812">pessoas</text><text fill="#000000" font-family="sans-serif" font-size="14" lengthAdjust="spacing" textLength="176.6064" x="1662.5" y="368.1089">(cpf PK, nome, endereco,</text><text fill="#000000" font-family="sans-serif" font-size="14" lengthAdjust="spacing" textLength="161.957" x="1666.9502" y="384.4057">data_nascimento, foto)</text></g><g class="entity" data-entity="GMN11" data-source-line="44" data-uid="ent0012" id="entity_GMN11"><path d="M394.5,119.1269 L394.5,159.3925 L558.627,159.3925 L558.627,129.1269 L548.627,119.1269 L394.5,119.1269" fill="#FEFFDD" style="stroke:#181818;stroke-width:0.5;"/><path d="M548.627,119.1269 L548.627,129.1269 L558.627,129.1269 L548.627,119.1269" fill="#FEFFDD" style="stroke:#181818;stroke-width:1;"/><text fill="#000000" font-family="sans-serif" font-size="13" lengthAdjust="spacing" textLength="143.127" x="400.5" y="136.1938">Biblioteca JS para API:</text><text fill="#000000" font-family="sans-serif" font-size="13" lengthAdjust="spacing" textLength="109.8525" x="400.5" y="151.3266">&#8226; fetch() (nativa)</text></g><g class="entity" data-entity="GMN14" data-source-line="49" data-uid="ent0015" id="entity_GMN14"><path d="M832.63,43.2969 L832.63,159.2266 A0,0 0 0 0 832.63,159.2266 L956.42,159.2266 L960.42,318.8069 L964.42,159.2266 L1088.2267,159.2266 A0,0 0 0 0 1088.2267,159.2266 L1088.2267,53.2969 L1078.2267,43.2969 L832.63,43.2969 A0,0 0 0 0 832.63,43.2969" fill="#FEFFDD" style="stroke:#181818;stroke-width:0.5;"/><path d="M1078.2267,43.2969 L1078.2267,53.2969 L1088.2267,53.2969 L1078.2267,43.2969" fill="#FEFFDD" style="stroke:#181818;stroke-width:0.5;"/><text fill="#000000" font-family="sans-serif" font-size="13" lengthAdjust="spacing" textLength="122.5479" x="838.63" y="60.3638">Formato de dados:</text><text fill="#000000" font-family="sans-serif" font-size="13" font-weight="bold" lengthAdjust="spacing" textLength="36.1309" x="965.3102" y="60.3638">JSON</text><text fill="#000000" font-family="sans-serif" font-size="13" lengthAdjust="spacing" textLength="115.813" x="838.63" y="75.4966">Opera&#231;&#245;es CRUD:</text><text fill="#000000" font-family="sans-serif" font-size="13" lengthAdjust="spacing" textLength="202.0142" x="838.63" y="90.6294">&#8226; POST&#160; &#160;/pessoas&#160; &#160; &#160; &#160; (Create)</text><text fill="#000000" font-family="sans-serif" font-size="13" lengthAdjust="spacing" textLength="234.5967" x="838.63" y="105.7622">&#8226; GET&#160; &#160; /pessoas[?q=]&#160; &#160;(Read lista)</text><text fill="#000000" font-family="sans-serif" font-size="13" lengthAdjust="spacing" textLength="216.3853" x="838.63" y="120.895">&#8226; GET&#160; &#160; /pessoas/{cpf}&#160; (Read 1)</text><text fill="#000000" font-family="sans-serif" font-size="13" lengthAdjust="spacing" textLength="216.8804" x="838.63" y="136.0278">&#8226; PUT&#160; &#160; /pessoas/{cpf}&#160; (Update)</text><text fill="#000000" font-family="sans-serif" font-size="13" lengthAdjust="spacing" textLength="224.6563" x="838.63" y="151.1606">&#8226; DELETE /pessoas/{cpf}&#160; (Delete)</text></g><g class="entity" data-entity="GMN17" data-source-line="59" data-uid="ent0018" id="entity_GMN17"><path d="M1640.74,493.5569 L1640.74,548.9553 L1860.8596,548.9553 L1860.8596,503.5569 L1850.8596,493.5569 L1640.74,493.5569" fill="#FEFFDD" style="stroke:#181818;stroke-width:0.5;"/><path d="M1850.8596,493.5569 L1850.8596,503.5569 L1860.8596,503.5569 L1850.8596,493.5569" fill="#FEFFDD" style="stroke:#181818;stroke-width:1;"/><text fill="#000000" font-family="sans-serif" font-size="13" lengthAdjust="spacing" textLength="97.2271" x="1646.74" y="510.6238">Usu&#225;rio de BD:</text><text fill="#000000" font-family="sans-serif" font-size="13" font-weight="bold" lengthAdjust="spacing" textLength="97.7603" x="1748.0994" y="510.6238">pessoas_user</text><text fill="#000000" font-family="sans-serif" font-size="13" lengthAdjust="spacing" textLength="100.896" x="1646.74" y="525.7566">Host permitido:</text><text fill="#000000" font-family="sans-serif" font-size="13" font-weight="bold" lengthAdjust="spacing" textLength="66.46" x="1751.7683" y="525.7566">localhost</text><text fill="#000000" font-family="sans-serif" font-size="13" lengthAdjust="spacing" textLength="75.7974" x="1646.74" y="540.8894">Porta: 3306</text></g><g class="entity" data-entity="RESTRACAO" data-source-line="70" data-uid="ent0022" id="entity_RESTRACAO"><path d="M6,180.8569 L6,281.6538 L289.6787,281.6538 L289.6787,190.8569 L279.6787,180.8569 L6,180.8569" fill="#FEFFDD" style="stroke:#181818;stroke-width:0.5;"/><path d="M279.6787,180.8569 L279.6787,190.8569 L289.6787,190.8569 L279.6787,180.8569" fill="#FEFFDD" style="stroke:#181818;stroke-width:1;"/><text fill="#000000" font-family="sans-serif" font-size="13" font-weight="bold" lengthAdjust="spacing" textLength="147.2212" x="12" y="197.9238">Restri&#231;&#227;o de Acesso</text><text fill="#000000" font-family="sans-serif" font-size="13" lengthAdjust="spacing" textLength="4.1323" x="12" y="213.0566">&#160;</text><text fill="#000000" font-family="sans-serif" font-size="13" lengthAdjust="spacing" textLength="247.7808" x="12" y="228.1894">&#8226; Acesso permitido apenas a partir da</text><text fill="#000000" font-family="sans-serif" font-size="13" lengthAdjust="spacing" textLength="8.2646" x="12" y="243.3222">&#160;&#160;</text><text fill="#000000" font-family="sans-serif" font-size="13" font-weight="bold" lengthAdjust="spacing" textLength="185.0786" x="20.2646" y="243.3222">m&#225;quina local (localhost)</text><text fill="#000000" font-family="sans-serif" font-size="13" lengthAdjust="spacing" textLength="4.1323" x="205.3433" y="243.3222">.</text><text fill="#000000" font-family="sans-serif" font-size="13" lengthAdjust="spacing" textLength="262.6787" x="12" y="258.455">&#8226; Servidor de aplica&#231;&#227;o e SGBD residem</text><text fill="#000000" font-family="sans-serif" font-size="13" lengthAdjust="spacing" textLength="133.6055" x="20.2646" y="273.5878">na mesma m&#225;quina.</text></g><!--link ESQ to TBL--><g class="link" data-entity-1="ESQ" data-entity-2="TBL" data-source-line="38" data-uid="lnk10" id="link_ESQ_TBL"><path d="M1579.99,363.2569 C1603.18,363.2569 1628.35,363.2569 1652.02,363.2569" fill="none" id="ESQ-TBL" style="stroke:#181818;stroke-width:1;"/></g><!--link CLIENTE to GMN11--><g class="link" data-entity-1="CLIENTE" data-entity-2="GMN11" data-source-line="44" data-uid="lnk13" id="link_CLIENTE_GMN11"><path d="M401.38,329.2669 C377.24,323.5269 351,315.2069 328.68,303.2569 C284.71,279.7269 288.86,238.2969 309.18,192.7569 C323.6,160.4369 359.32,146.4269 394.07,140.7669" fill="none" id="CLIENTE-GMN11" style="stroke:#181818;stroke-width:1;stroke-dasharray:7,7;"/></g><!--link MYSQL to GMN17--><g class="link" data-entity-1="MYSQL" data-entity-2="GMN17" data-source-line="59" data-uid="lnk19" id="link_MYSQL_GMN17"><path d="M1513.1184,429.4528 C1513.306,429.5255 1513.4947,429.5987 1513.6844,429.6723 C1514.4432,429.9665 1515.2187,430.2673 1516.0104,430.5743 C1517.5938,431.1884 1519.2419,431.8276 1520.9505,432.4903 C1524.3679,433.8157 1528.0275,435.235 1531.896,436.7354 C1539.6329,439.7363 1548.2053,443.0613 1557.3463,446.6069 C1593.91,460.7894 1639.57,478.5019 1677.24,493.1169" fill="none" id="MYSQL-GMN17" style="stroke:#181818;stroke-width:1;stroke-dasharray:7,7;"/></g><!--link CLIENTE to API--><g class="link" data-entity-1="CLIENTE" data-entity-2="API" data-source-line="65" data-uid="lnk20" id="link_CLIENTE_API"><path d="M551.8,343.1069 C654.89,345.6769 831.8419,350.0773 912.8719,352.0973" fill="none" id="CLIENTE-to-API" style="stroke:#1F78B4;stroke-width:1;"/><polygon fill="#1F78B4" points="918.87,352.2469,909.9725,348.0238,913.8716,352.1223,909.7731,356.0213,918.87,352.2469" style="stroke:#1F78B4;stroke-width:1;"/><text fill="#000000" font-family="sans-serif" font-size="13" lengthAdjust="spacing" textLength="58.5508" x="639.63" y="312.3238">HTTP/1.1</text><text fill="#000000" font-family="sans-serif" font-size="13" lengthAdjust="spacing" textLength="49.8672" x="643.9718" y="327.4566">RESTful</text><text fill="#000000" font-family="sans-serif" font-size="13" font-weight="bold" lengthAdjust="spacing" textLength="36.1309" x="650.84" y="342.5894">JSON</text></g><!--link API to MYSQL--><g class="link" data-entity-1="API" data-entity-2="MYSQL" data-source-line="66" data-uid="lnk21" id="link_API_MYSQL"><path d="M1001.95,360.5069 C1074.13,373.1469 1229.81,399.2269 1362.22,413.2569 C1365.7006,413.6256 1369.2366,413.9793 1372.8078,414.3183 C1374.5935,414.4879 1370.4121,414.1153 1372.213,414.2775" fill="none" id="API-to-MYSQL" style="stroke:#33A02C;stroke-width:1;"/><polygon fill="#33A02C" points="1378.1887,414.816,1369.5841,410.0244,1373.2089,414.3673,1368.8661,417.9921,1378.1887,414.816" style="stroke:#33A02C;stroke-width:1;"/><text fill="#000000" font-family="sans-serif" font-size="13" lengthAdjust="spacing" textLength="62.0737" x="1257.5196" y="348.3238">TCP 3306</text><text fill="#000000" font-family="sans-serif" font-size="13" lengthAdjust="spacing" textLength="25.7271" x="1275.6929" y="363.4566">SQL</text><text fill="#000000" font-family="sans-serif" font-size="13" lengthAdjust="spacing" textLength="126.5913" x="1225.2608" y="378.5894">user=pessoas_user</text><text fill="#000000" font-family="sans-serif" font-size="13" lengthAdjust="spacing" textLength="130.6729" x="1223.22" y="393.7222">schema=pessoasdb</text></g><!--link RESTRACAO to LOCAL--><g class="link" data-entity-1="RESTRACAO" data-entity-2="LOCAL" data-source-line="77" data-uid="lnk23" id="link_RESTRACAO_LOCAL"><path d="M289.77,231.2569 C300.6513,231.2569 311.6677,231.2569 322.6212,231.2569 C328.098,231.2569 333.5591,231.2569 338.9797,231.2569 C340.3348,231.2569 341.6874,231.2569 343.0371,231.2569 C343.3746,231.2569 337.7118,231.2569 338.0489,231.2569" fill="none" id="RESTRACAO-to-LOCAL" style="stroke:#181818;stroke-width:1;stroke-dasharray:1,3;"/><polygon fill="#181818" points="344.0489,231.2569,335.0489,227.2569,339.0489,231.2569,335.0489,235.2569,344.0489,231.2569" style="stroke:#181818;stroke-width:1;"/></g><g class="legend" data-source-line="80"><rect fill="none" height="91.4844" rx="7.5" ry="7.5" style="stroke:#000000;stroke-width:1;" width="261.9863" x="1642.1237" y="566.9553"/><text fill="#000000" font-family="sans-serif" font-size="14" font-weight="bold" lengthAdjust="spacing" textLength="93.9463" x="1647.1237" y="584.9504">Tecnologias</text><text fill="#000000" font-family="sans-serif" font-size="14" lengthAdjust="spacing" textLength="120.2168" x="1647.1237" y="601.2473">- SGBD: MySQL 8</text><text fill="#000000" font-family="sans-serif" font-size="14" lengthAdjust="spacing" textLength="251.9863" x="1647.1237" y="617.5442">- App Server: Python 3 (Flask/WSGI)</text><text fill="#000000" font-family="sans-serif" font-size="14" lengthAdjust="spacing" textLength="248.5547" x="1647.1237" y="633.8411">- Cliente: HTML + JavaScript (fetch)</text><text fill="#000000" font-family="sans-serif" font-size="14" lengthAdjust="spacing" textLength="144.4023" x="1647.1237" y="650.1379">- API: RESTful (JSON)</text></g><!--SRC=[XLNTKjj65BxtKvmX5p4gXX2dRUe9T6HP1bDXAP8eT70civRMjWPfLwpMT9WCCvdfHL-WlK_QYpv1No1-apn9pwvaep6O2WpMsM_Fdf_lV2iJcL8mnVKyaLJE1O6OW9cdIKGM_op-vc3vPptu-l4Fy6XHS590q-4HIMUyaDkDHd6Li9m8ai6OH5TJmUSijdZA1JphwwU6Y7YMSqQP3EGjdYbe90cRfhG6MTdWGmF0Bxq9HWNilqH3C2Cn_pLXKvYGjA1ewN8HKr6Ts6wt6tSrRup7ZpZwzl-snKIICIdAhG-GQ7gGwG_g1tqqKZgH83c8P3gJ42SgduIpHkCv73psWEKEG_iYTA5fUlRms0p0SItJENQ3SFlnBGsTrTRfuZEsZ17GtHYnPhhgoXPWbxGRp03ZVGwjrGEMCx3no9e94QNB8RcXKoomW7CwrawwldiUsBuk1Dpt3xQiDC7_L057x3WyTU0RE24t98X4aakzTtdGcpTzmPbisIm-F4G_T_XP3mhF-7dGSttesM1wpi0o5xylVdCV2pAWuYPHCU9BZQOZvjtA6MVGXcO_9SNLNfyKqlG6GB5CDoHLuPQLCJtlOK8AwTj1E69xUSdp2Zl01DH25VjJaNVDeRKMyufAMwUtmLi7Ncklfx-exsKCzupVielhESr81moZYY4U6uRUOGTlrz4X6TEq3ZOCP46KJy3xQGUBbT4Te0ovIoE-Cs8wbFUC556IOSPy1oPSyh8YOTVHtl4KQE60iLPbkbEStaJTeHiYNSsXVM7syCiciY9BnbnAdW6VB4cXXYWPfmakHWHE0b23fuhTmPMl7_-22PNHhBaDJKOaTc-xWPc0yjLOzuYRS4-VYupWt24fOcHmeSfo4hX3my15DwT2iUHVMcWrMnxYuP1z-GHVFYrRhb-gtwObA47ALDWZkuJ24dlvu_N1Esrg-fJ4a2Q591lHUn-mCNVAhGRlBu7UsKRWMHxNpk_PZet3z13MeobLiBK2bGA4zT5SGoTdnNpnMIIwHDrUZJRlvmKLkax7A1w0jSeIYHEc82jDqUiU5n89rsw_-Avst1FAPbyi_hG3s0FFTqFNSXrt4qrMgdJvRB___UlkgtUjGpry7JWEGszlVtT_nDGOJkQeTQlUAWHkQRVD5oyjjQMSh0w4bgVZ735y7p6Lua4ztn4heXdEsi5gq3Odujj7Fl9RIPDb1u7x5DDnc5IKlccPBWg7nLaX1KcOrF9X63x5zwIyM9M0HUfuNTogpwNblWj0Sef32qIDY4nGzeWULSF8bXU0RXBKzDymTYjlTR4ajJkTGd3KxQ6Q54bCC-qG7MMqoF1lvNVtliVtARKkOvmy6gjQwnjcSzaS-yWUzimDrKhfLBdNDDML2Md4y3QT9ah8qDBI8NQWqarjCVDSfqH51zRb_Zmu6cnhL7KtAUQitKlGrBfImfJQG4KfQ2f2bKDKHlOV]--></g></svg>