<svg xmlns="http://www.w3.org/2000/svg" xmlns:xlink="http://www.w3.org/1999/xlink" contentStyleType="text/css" data-diagram-type="CLASS" height="1325px" preserveAspectRatio="none" style="width:456px;height:1325px;background:#FFFFFF;" version="1.1" viewBox="0 0 456 1325" width="456px" zoomAndPan="magnify"><defs/><g><!--entity Meu_Servidor_MYSQL--><g class="entity" data-entity="Meu_Servidor_MYSQL" data-source-line="1" data-uid="ent0002" id="entity_Meu_Servidor_MYSQL"><path d="M7,17 C7,7 223.3018,7 223.3018,7 C223.3018,7 439.6035,7 439.6035,17 L439.6035,1298.3281 C439.6035,1308.3281 223.3018,1308.3281 223.3018,1308.3281 C223.3018,1308.3281 7,1308.3281 7,1298.3281 L7,17" fill="#F1F1F1" style="stroke:#181818;stroke-width:0.5;"/><path d="M7,17 C7,27 223.3018,27 223.3018,27 C223.3018,27 439.6035,27 439.6035,17" fill="none" style="stroke:#181818;stroke-width:0.5;"/><text fill="#000000" font-family="sans-serif" font-size="14" lengthAdjust="spacing" textLength="329.1025" x="17" y="43.9951">Sistema de gerenciamento de Banco de Dados</text><path d="M7,42.2969 C7,52.2969 223.3018,52.2969 223.3018,52.2969 C223.3018,52.2969 439.6035,52.2969 439.6035,42.2969" fill="none" style="stroke:#181818;stroke-width:1;"/><text fill="#000000" font-family="sans-serif" font-size="14" lengthAdjust="spacing" textLength="8.9004" x="17" y="64.292">&#160;&#160;</text><text fill="#000000" font-family="sans-serif" font-size="14" lengthAdjust="spacing" textLength="315.7383" x="17" y="80.5889">&gt;&gt;&gt;&gt;&gt;&gt;&gt;&gt;&gt;&gt; Usu&#225;rios &lt;&lt;&lt;&lt;&lt;&lt;&lt;&lt;&lt;&lt;&lt;</text><text fill="#000000" font-family="sans-serif" font-size="14" lengthAdjust="spacing" textLength="4.4502" x="17" y="96.8857">&#160;</text><path d="M7,99.1875 C7,109.1875 223.3018,109.1875 223.3018,109.1875 C223.3018,109.1875 439.6035,109.1875 439.6035,99.1875" fill="none" style="stroke:#181818;stroke-width:1;"/><text fill="#000000" font-family="sans-serif" font-size="14" lengthAdjust="spacing" textLength="280.9639" x="17" y="121.1826">Usu&#225;rio f362bf0 Bruno Antonio Marques</text><path d="M7,123.4844 C7,133.4844 223.3018,133.4844 223.3018,133.4844 C223.3018,133.4844 439.6035,133.4844 439.6035,123.4844" fill="none" style="stroke:#181818;stroke-width:1;stroke-dasharray:1,2;"/><text fill="#000000" font-family="sans-serif" font-size="14" lengthAdjust="spacing" textLength="310.8027" x="17" y="145.4795">Usu&#225;rio r536fa6 Caio Cesar Balbino Da Silva</text><path d="M7,147.7813 C7,157.7813 223.3018,157.7813 223.3018,157.7813 C223.3018,157.7813 439.6035,157.7813 439.6035,147.7813" fill="none" style="stroke:#181818;stroke-width:1;stroke-dasharray:1,2;"/><text fill="#000000" font-family="sans-serif" font-size="14" lengthAdjust="spacing" textLength="303.5498" x="17" y="169.7764">Usu&#225;rio h756960 Heder Rodrigues Da Silva</text><path d="M7,172.0781 C7,182.0781 223.3018,182.0781 223.3018,182.0781 C223.3018,182.0781 439.6035,182.0781 439.6035,172.0781" fill="none" style="stroke:#181818;stroke-width:1;stroke-dasharray:1,2;"/><text fill="#000000" font-family="sans-serif" font-size="14" lengthAdjust="spacing" textLength="331.96" x="17" y="194.0732">Usu&#225;rio r8133g7 &#205;talo Kevin Rodrigues Da Silva</text><path d="M7,196.375 C7,206.375 223.3018,206.375 223.3018,206.375 C223.3018,206.375 439.6035,206.375 439.6035,196.375" fill="none" style="stroke:#181818;stroke-width:1;stroke-dasharray:1,2;"/><text fill="#000000" font-family="sans-serif" font-size="14" lengthAdjust="spacing" textLength="282.5361" x="17" y="218.3701">Usu&#225;rio r837aa0 Lucas Souza Rodrigues</text><path d="M7,220.6719 C7,230.6719 223.3018,230.6719 223.3018,230.6719 C223.3018,230.6719 439.6035,230.6719 439.6035,220.6719" fill="none" style="stroke:#181818;stroke-width:1;stroke-dasharray:1,2;"/><text fill="#000000" font-family="sans-serif" font-size="14" lengthAdjust="spacing" textLength="321.2207" x="17" y="242.667">Usu&#225;rio h714419 Marcos Paulo Cordeiro Goes</text><path d="M7,244.9688 C7,254.9688 223.3018,254.9688 223.3018,254.9688 C223.3018,254.9688 439.6035,254.9688 439.6035,244.9688" fill="none" style="stroke:#181818;stroke-width:1;stroke-dasharray:1,2;"/><text fill="#000000" font-family="sans-serif" font-size="14" lengthAdjust="spacing" textLength="310.0508" x="17" y="266.9639">Usu&#225;rio r854124 Ramon Borges De Holanda</text><text fill="#000000" font-family="sans-serif" font-size="14" lengthAdjust="spacing" textLength="17.8008" x="17" y="283.2607">....</text><text fill="#000000" font-family="sans-serif" font-size="14" lengthAdjust="spacing" textLength="343.5811" x="17" y="299.5576">Usu&#225;rio n0296a6 Bryan Lucena Barbosa Da Silva</text><path d="M7,301.8594 C7,311.8594 223.3018,311.8594 223.3018,311.8594 C223.3018,311.8594 439.6035,311.8594 439.6035,301.8594" fill="none" style="stroke:#181818;stroke-width:1;stroke-dasharray:1,2;"/><text fill="#000000" font-family="sans-serif" font-size="14" lengthAdjust="spacing" textLength="315.4922" x="17" y="323.8545">Usu&#225;rio h788986 Igor Soares Lima Da Cunha</text><path d="M7,326.1563 C7,336.1563 223.3018,336.1563 223.3018,336.1563 C223.3018,336.1563 439.6035,336.1563 439.6035,326.1563" fill="none" style="stroke:#181818;stroke-width:1;stroke-dasharray:1,2;"/><text fill="#000000" font-family="sans-serif" font-size="14" lengthAdjust="spacing" textLength="295.0186" x="17" y="348.1514">Usu&#225;rio h77gii5 Jessica Cristina De S Silva</text><path d="M7,350.4531 C7,360.4531 223.3018,360.4531 223.3018,360.4531 C223.3018,360.4531 439.6035,360.4531 439.6035,350.4531" fill="none" style="stroke:#181818;stroke-width:1;stroke-dasharray:1,2;"/><text fill="#000000" font-family="sans-serif" font-size="14" lengthAdjust="spacing" textLength="333.9355" x="17" y="372.4482">Usu&#225;rio f3648i0 Maysa Kelly Dos Santos Freitas</text><path d="M7,374.75 C7,384.75 223.3018,384.75 223.3018,384.75 C223.3018,384.75 439.6035,384.75 439.6035,374.75" fill="none" style="stroke:#181818;stroke-width:1;"/><text fill="#000000" font-family="sans-serif" font-size="14" lengthAdjust="spacing" textLength="4.4502" x="17" y="396.7451">&#160;</text><text fill="#000000" font-family="sans-serif" font-size="14" lengthAdjust="spacing" textLength="376.0654" x="17" y="413.042">&gt;&gt;&gt;&gt;&gt;&gt;&gt;&gt;&gt;&gt; GRUPOS (ROLES) &lt;&lt;&lt;&lt;&lt;&lt;&lt;&lt;&lt;&lt;&lt;</text><text fill="#000000" font-family="sans-serif" font-size="14" lengthAdjust="spacing" textLength="4.4502" x="17" y="429.3389">&#160;</text><path d="M7,431.6406 C7,441.6406 223.3018,441.6406 223.3018,441.6406 C223.3018,441.6406 439.6035,441.6406 439.6035,431.6406" fill="none" style="stroke:#181818;stroke-width:1;"/><text fill="#000000" font-family="sans-serif" font-size="14" lengthAdjust="spacing" textLength="95.5938" x="17" y="453.6357">grupo "norte"</text><path d="M7,455.9375 C7,465.9375 223.3018,465.9375 223.3018,465.9375 C223.3018,465.9375 439.6035,465.9375 439.6035,455.9375" fill="none" style="stroke:#181818;stroke-width:1;"/><text fill="#000000" font-family="sans-serif" font-size="14" lengthAdjust="spacing" textLength="120.3877" x="17" y="477.9326">grupo "nordeste"</text><path d="M7,480.2344 C7,490.2344 223.3018,490.2344 223.3018,490.2344 C223.3018,490.2344 439.6035,490.2344 439.6035,480.2344" fill="none" style="stroke:#181818;stroke-width:1;"/><text fill="#000000" font-family="sans-serif" font-size="14" lengthAdjust="spacing" textLength="148.8662" x="17" y="502.2295">grupo "centro_oeste"</text><path d="M7,504.5313 C7,514.5313 223.3018,514.5313 223.3018,514.5313 C223.3018,514.5313 439.6035,514.5313 439.6035,504.5313" fill="none" style="stroke:#181818;stroke-width:1;"/><text fill="#000000" font-family="sans-serif" font-size="14" lengthAdjust="spacing" textLength="113.3604" x="17" y="526.5264">grupo "sudeste"</text><path d="M7,528.8281 C7,538.8281 223.3018,538.8281 223.3018,538.8281 C223.3018,538.8281 439.6035,538.8281 439.6035,528.8281" fill="none" style="stroke:#181818;stroke-width:1;"/><text fill="#000000" font-family="sans-serif" font-size="14" lengthAdjust="spacing" textLength="78.3535" x="17" y="550.8232">grupo "sul"</text><path d="M7,553.125 C7,563.125 223.3018,563.125 223.3018,563.125 C223.3018,563.125 439.6035,563.125 439.6035,553.125" fill="none" style="stroke:#181818;stroke-width:1;"/><path d="M7,561.125 C7,571.125 223.3018,571.125 223.3018,571.125 C223.3018,571.125 439.6035,571.125 439.6035,561.125" fill="none" style="stroke:#181818;stroke-width:1;"/><path d="M7,563.125 C7,573.125 223.3018,573.125 223.3018,573.125 C223.3018,573.125 439.6035,573.125 439.6035,563.125" fill="none" style="stroke:#181818;stroke-width:1;"/><text fill="#000000" font-family="sans-serif" font-size="14" lengthAdjust="spacing" textLength="8.9004" x="17" y="583.1201">&#160;&#160;</text><text fill="#000000" font-family="sans-serif" font-size="14" lengthAdjust="spacing" textLength="412.6035" x="17" y="599.417">&gt;&gt;&gt;&gt;&gt;&gt;&gt;&gt;&gt;&gt; ESQUEMAS DE BANCO &lt;&lt;&lt;&lt;&lt;&lt;&lt;&lt;&lt;&lt;&lt;</text><text fill="#000000" font-family="sans-serif" font-size="14" lengthAdjust="spacing" textLength="4.4502" x="17" y="615.7139">&#160;</text><path d="M7,618.0156 C7,628.0156 223.3018,628.0156 223.3018,628.0156 C223.3018,628.0156 439.6035,628.0156 439.6035,618.0156" fill="none" style="stroke:#181818;stroke-width:1;"/><path d="M7,620.0156 C7,630.0156 223.3018,630.0156 223.3018,630.0156 C223.3018,630.0156 439.6035,630.0156 439.6035,620.0156" fill="none" style="stroke:#181818;stroke-width:1;"/><text fill="#000000" font-family="sans-serif" font-size="14" lengthAdjust="spacing" textLength="255.4248" x="17" y="640.0107">esquema 11-rondonia            (norte)</text><path d="M7,642.3125 C7,652.3125 223.3018,652.3125 223.3018,652.3125 C223.3018,652.3125 439.6035,652.3125 439.6035,642.3125" fill="none" style="stroke:#181818;stroke-width:1;stroke-dasharray:1,2;"/><text fill="#000000" font-family="sans-serif" font-size="14" lengthAdjust="spacing" textLength="241.8828" x="17" y="664.3076">esquema 12-acre                (norte)</text><path d="M7,666.6094 C7,676.6094 223.3018,676.6094 223.3018,676.6094 C223.3018,676.6094 439.6035,676.6094 439.6035,666.6094" fill="none" style="stroke:#181818;stroke-width:1;stroke-dasharray:1,2;"/><text fill="#000000" font-family="sans-serif" font-size="14" lengthAdjust="spacing" textLength="264.8926" x="17" y="688.6045">esquema 13-amazonas            (norte)</text><path d="M7,690.9063 C7,700.9063 223.3018,700.9063 223.3018,700.9063 C223.3018,700.9063 439.6035,700.9063 439.6035,690.9063" fill="none" style="stroke:#181818;stroke-width:1;stroke-dasharray:1,2;"/><text fill="#000000" font-family="sans-serif" font-size="14" lengthAdjust="spacing" textLength="252.6494" x="17" y="712.9014">esquema 14-roraima             (norte)</text><path d="M7,715.2031 C7,725.2031 223.3018,725.2031 223.3018,725.2031 C223.3018,725.2031 439.6035,725.2031 439.6035,715.2031" fill="none" style="stroke:#181818;stroke-width:1;stroke-dasharray:1,2;"/><text fill="#000000" font-family="sans-serif" font-size="14" lengthAdjust="spacing" textLength="243.0381" x="17" y="737.1982">esquema 15-para                (norte)</text><path d="M7,739.5 C7,749.5 223.3018,749.5 223.3018,749.5 C223.3018,749.5 439.6035,749.5 439.6035,739.5" fill="none" style="stroke:#181818;stroke-width:1;stroke-dasharray:1,2;"/><text fill="#000000" font-family="sans-serif" font-size="14" lengthAdjust="spacing" textLength="255.0488" x="17" y="761.4951">esquema 16-amapa               (norte)</text><path d="M7,763.7969 C7,773.7969 223.3018,773.7969 223.3018,773.7969 C223.3018,773.7969 439.6035,773.7969 439.6035,763.7969" fill="none" style="stroke:#181818;stroke-width:1;stroke-dasharray:1,2;"/><text fill="#000000" font-family="sans-serif" font-size="14" lengthAdjust="spacing" textLength="253.7363" x="17" y="785.792">esquema 17-tocantins           (norte)</text><path d="M7,788.0938 C7,798.0938 223.3018,798.0938 223.3018,798.0938 C223.3018,798.0938 439.6035,798.0938 439.6035,788.0938" fill="none" style="stroke:#181818;stroke-width:1;stroke-dasharray:1,2;"/><text fill="#000000" font-family="sans-serif" font-size="14" lengthAdjust="spacing" textLength="289.6729" x="17" y="810.0889">esquema 21-maranhao            (nordeste)</text><path d="M7,812.3906 C7,822.3906 223.3018,822.3906 223.3018,822.3906 C223.3018,822.3906 439.6035,822.3906 439.6035,812.3906" fill="none" style="stroke:#181818;stroke-width:1;stroke-dasharray:1,2;"/><text fill="#000000" font-family="sans-serif" font-size="14" lengthAdjust="spacing" textLength="265.6992" x="17" y="834.3857">esquema 22-piaui               (nordeste)</text><path d="M7,836.6875 C7,846.6875 223.3018,846.6875 223.3018,846.6875 C223.3018,846.6875 439.6035,846.6875 439.6035,836.6875" fill="none" style="stroke:#181818;stroke-width:1;stroke-dasharray:1,2;"/><text fill="#000000" font-family="sans-serif" font-size="14" lengthAdjust="spacing" textLength="270.8057" x="17" y="858.6826">esquema 23-ceara               (nordeste)</text><path d="M7,860.9844 C7,870.9844 223.3018,870.9844 223.3018,870.9844 C223.3018,870.9844 439.6035,870.9844 439.6035,860.9844" fill="none" style="stroke:#181818;stroke-width:1;stroke-dasharray:1,2;"/><text fill="#000000" font-family="sans-serif" font-size="14" lengthAdjust="spacing" textLength="312.833" x="17" y="882.9795">esquema 24-rio_grande_do_norte (nordeste)</text><path d="M7,885.2813 C7,895.2813 223.3018,895.2813 223.3018,895.2813 C223.3018,895.2813 439.6035,895.2813 439.6035,885.2813" fill="none" style="stroke:#181818;stroke-width:1;stroke-dasharray:1,2;"/><text fill="#000000" font-family="sans-serif" font-size="14" lengthAdjust="spacing" textLength="275.8369" x="17" y="907.2764">esquema 25-paraiba             (nordeste)</text><path d="M7,909.5781 C7,919.5781 223.3018,919.5781 223.3018,919.5781 C223.3018,919.5781 439.6035,919.5781 439.6035,909.5781" fill="none" style="stroke:#181818;stroke-width:1;stroke-dasharray:1,2;"/><text fill="#000000" font-family="sans-serif" font-size="14" lengthAdjust="spacing" textLength="297.6982" x="17" y="931.5732">esquema 26-pernambuco          (nordeste)</text><path d="M7,933.875 C7,943.875 223.3018,943.875 223.3018,943.875 C223.3018,943.875 439.6035,943.875 439.6035,933.875" fill="none" style="stroke:#181818;stroke-width:1;stroke-dasharray:1,2;"/><text fill="#000000" font-family="sans-serif" font-size="14" lengthAdjust="spacing" textLength="277.0537" x="17" y="955.8701">esquema 27-alagoas             (nordeste)</text><path d="M7,958.1719 C7,968.1719 223.3018,968.1719 223.3018,968.1719 C223.3018,968.1719 439.6035,968.1719 439.6035,958.1719" fill="none" style="stroke:#181818;stroke-width:1;stroke-dasharray:1,2;"/><text fill="#000000" font-family="sans-serif" font-size="14" lengthAdjust="spacing" textLength="274.6201" x="17" y="980.167">esquema 28-sergipe             (nordeste)</text><path d="M7,982.4688 C7,992.4688 223.3018,992.4688 223.3018,992.4688 C223.3018,992.4688 439.6035,992.4688 439.6035,982.4688" fill="none" style="stroke:#181818;stroke-width:1;stroke-dasharray:1,2;"/><text fill="#000000" font-family="sans-serif" font-size="14" lengthAdjust="spacing" textLength="270.3887" x="17" y="1004.4639">esquema 29-bahia               (nordeste)</text><path d="M7,1006.7656 C7,1016.7656 223.3018,1016.7656 223.3018,1016.7656 C223.3018,1016.7656 439.6035,1016.7656 439.6035,1006.7656" fill="none" style="stroke:#181818;stroke-width:1;stroke-dasharray:1,2;"/><text fill="#000000" font-family="sans-serif" font-size="14" lengthAdjust="spacing" textLength="343.3486" x="17" y="1028.7607">esquema 50-mato_grosso_do_sul  (centro_oeste)</text><path d="M7,1031.0625 C7,1041.0625 223.3018,1041.0625 223.3018,1041.0625 C223.3018,1041.0625 439.6035,1041.0625 439.6035,1031.0625" fill="none" style="stroke:#181818;stroke-width:1;stroke-dasharray:1,2;"/><text fill="#000000" font-family="sans-serif" font-size="14" lengthAdjust="spacing" textLength="322.9912" x="17" y="1053.0576">esquema 51-mato_grosso         (centro_oeste)</text><path d="M7,1055.3594 C7,1065.3594 223.3018,1065.3594 223.3018,1065.3594 C223.3018,1065.3594 439.6035,1065.3594 439.6035,1055.3594" fill="none" style="stroke:#181818;stroke-width:1;stroke-dasharray:1,2;"/><text fill="#000000" font-family="sans-serif" font-size="14" lengthAdjust="spacing" textLength="297.2744" x="17" y="1077.3545">esquema 52-goias               (centro_oeste)</text><path d="M7,1079.6563 C7,1089.6563 223.3018,1089.6563 223.3018,1089.6563 C223.3018,1089.6563 439.6035,1089.6563 439.6035,1079.6563" fill="none" style="stroke:#181818;stroke-width:1;stroke-dasharray:1,2;"/><text fill="#000000" font-family="sans-serif" font-size="14" lengthAdjust="spacing" textLength="316.6338" x="17" y="1101.6514">esquema 53-distrito_federal    (centro_oeste)</text><path d="M7,1103.9531 C7,1113.9531 223.3018,1113.9531 223.3018,1113.9531 C223.3018,1113.9531 439.6035,1113.9531 439.6035,1103.9531" fill="none" style="stroke:#181818;stroke-width:1;stroke-dasharray:1,2;"/><text fill="#000000" font-family="sans-serif" font-size="14" lengthAdjust="spacing" textLength="285.6943" x="17" y="1125.9482">esquema 31-minas_gerais        (sudeste)</text><path d="M7,1128.25 C7,1138.25 223.3018,1138.25 223.3018,1138.25 C223.3018,1138.25 439.6035,1138.25 439.6035,1128.25" fill="none" style="stroke:#181818;stroke-width:1;stroke-dasharray:1,2;"/><text fill="#000000" font-family="sans-serif" font-size="14" lengthAdjust="spacing" textLength="280.1367" x="17" y="1150.2451">esquema 32-espiritosanto       (sudeste)</text><path d="M7,1152.5469 C7,1162.5469 223.3018,1162.5469 223.3018,1162.5469 C223.3018,1162.5469 439.6035,1162.5469 439.6035,1152.5469" fill="none" style="stroke:#181818;stroke-width:1;stroke-dasharray:1,2;"/><text fill="#000000" font-family="sans-serif" font-size="14" lengthAdjust="spacing" textLength="282.3789" x="17" y="1174.542">esquema 33-rio_de_janeiro      (sudeste)</text><path d="M7,1176.8438 C7,1186.8438 223.3018,1186.8438 223.3018,1186.8438 C223.3018,1186.8438 439.6035,1186.8438 439.6035,1176.8438" fill="none" style="stroke:#181818;stroke-width:1;stroke-dasharray:1,2;"/><text fill="#000000" font-family="sans-serif" font-size="14" lengthAdjust="spacing" textLength="276.9854" x="17" y="1198.8389">esquema 35-sao_paulo           (sudeste)</text><path d="M7,1201.1406 C7,1211.1406 223.3018,1211.1406 223.3018,1211.1406 C223.3018,1211.1406 439.6035,1211.1406 439.6035,1201.1406" fill="none" style="stroke:#181818;stroke-width:1;stroke-dasharray:1,2;"/><text fill="#000000" font-family="sans-serif" font-size="14" lengthAdjust="spacing" textLength="234.3496" x="17" y="1223.1357">esquema 41-parana              (sul)</text><path d="M7,1225.4375 C7,1235.4375 223.3018,1235.4375 223.3018,1235.4375 C223.3018,1235.4375 439.6035,1235.4375 439.6035,1225.4375" fill="none" style="stroke:#181818;stroke-width:1;stroke-dasharray:1,2;"/><text fill="#000000" font-family="sans-serif" font-size="14" lengthAdjust="spacing" textLength="252.752" x="17" y="1247.4326">esquema 42-santa_catarina      (sul)</text><path d="M7,1249.7344 C7,1259.7344 223.3018,1259.7344 223.3018,1259.7344 C223.3018,1259.7344 439.6035,1259.7344 439.6035,1249.7344" fill="none" style="stroke:#181818;stroke-width:1;stroke-dasharray:1,2;"/><text fill="#000000" font-family="sans-serif" font-size="14" lengthAdjust="spacing" textLength="262.459" x="17" y="1271.7295">esquema 43-rio_grande_do_sul   (sul)</text><path d="M7,1274.0313 C7,1284.0313 223.3018,1284.0313 223.3018,1284.0313 C223.3018,1284.0313 439.6035,1284.0313 439.6035,1274.0313" fill="none" style="stroke:#181818;stroke-width:1;stroke-dasharray:1,2;"/><text fill="#000000" font-family="sans-serif" font-size="14" lengthAdjust="spacing" textLength="4.4502" x="17" y="1296.0264">&#160;</text></g><!--SRC=[ZPNDRjf04CVlFCKef-Im5RR1WDHM2f0cRQ19i7AegieQxCNPokouktQav1tw47sMl5Z79Wd4cC2SOFsRdVzyU1nZZdEq4gQo20DfxbLC9fp-26ucyBCLA9lB9K8i8P56waZXKkgSoeCXwgZwCSQOR4kmjG1QdryDRctnzCyeil1nRQqL-V8C5fxlpXTj69f24vpovPfFfsZ-5DAsFh2jMTFr_0NwC4B-Cv8M3Qj8vueTnmY1Ik-nvd7Nw_e3lmqNCfO6PXGRbV2zkt3JTpmlwS7JtnnJWajvh_GXNbuFiGsJ8a8B0HMFk7RQ4kHqEiwWJ33YmbnZmN56P6Af3C4vRUVSxtOSjmCpN9A68Pca52BXWbBKyKeAh77TTWS-bsXe7b2NYgH6BfAPayNTHUht1tqVlYPaM3uQZZ1HoueV5Vfkc-ybIdNXcxHMHSmO7XF5SLXMq1Y1czpfgpPd_S0oBcMQFi2Oqm-G-stXYv4gn-SPsfoWyzdjzLK0nxEhoLbmqZ16YIaoWYDD9fT7zQDOslefboCt5DBs4rl4JOVfyy4djjfudmKtjsVJqm36Pp0y_JwwUgklyf2MnvWhwJZ2a8vvjX4sxBWIVhAgrYlh2eoCX9erivx09JwIvi7RotPOWy6oiVlPhiZGu64Q_593XWUnFP5Jn5rNskvZNKSiMGFF7zNlhLfLnrsHAInKWun6t1EHt4vn9yx5KnGch2UMOKnXfNWtlggVckDXj_iYaqRZSbv4T03U4vXYGc-RlXll2ojDeZ9v63uGSxnJXrQcs-OsvMLfo5egIyDl3UERhrhTnTbqMKTupyKL2QbQmdjSF17pOZAA8otA_O_fFXUFXV4Yio5_xL2z1Zj-NWvrsXNIPgeCOCj5jeVsgWdYwVcDkjhsxz9TOP72hFe-REJRJ7USQjnqhMTCftNI5QLM32F-y1lruj54UhM9hzgwIRP-_GS0]--></g></svg>