<svg xmlns="http://www.w3.org/2000/svg" xmlns:xlink="http://www.w3.org/1999/xlink" contentStyleType="text/css" data-diagram-type="CLASS" height="1289px" preserveAspectRatio="none" style="width:1522px;height:1289px;background:#FFFFFF;" version="1.1" viewBox="0 0 1522 1289" width="1522px" zoomAndPan="magnify"><title>Diagrama de Classes &#8212; Cliente Web (HTML + JavaScript, fetch, CRUD Pessoas)</title><defs/><g><g class="title" data-source-line="1"><text fill="#000000" font-family="sans-serif" font-size="14" font-weight="bold" lengthAdjust="spacing" textLength="620.6211" x="443.9295" y="22.9951">Diagrama de Classes &#8212; Cliente Web (HTML + JavaScript, fetch, CRUD Pessoas)</text></g><!--class APIService--><g class="entity" data-entity="APIService" data-source-line="14" data-uid="ent0002" id="entity_APIService"><rect fill="#FDFDFD" height="186.6406" rx="2.5" ry="2.5" style="stroke:#333333;stroke-width:0.5;" width="455.0166" x="692.38" y="44.2969"/><ellipse cx="878.6935" cy="64.4297" fill="#ADD1B2" rx="11" ry="11" style="stroke:#181818;stroke-width:1;"/><path d="M881.6622,70.0703 Q881.0841,70.3672 880.4435,70.5078 Q879.8029,70.6641 879.0997,70.6641 Q876.5997,70.6641 875.2716,69.0234 Q873.9591,67.3672 873.9591,64.2422 Q873.9591,61.1172 875.2716,59.4609 Q876.5997,57.8047 879.0997,57.8047 Q879.8029,57.8047 880.4435,57.9609 Q881.0997,58.1172 881.6622,58.4141 L881.6622,61.1328 Q881.0372,60.5547 880.4435,60.2891 Q879.8497,60.0078 879.2247,60.0078 Q877.881,60.0078 877.1935,61.0859 Q876.506,62.1484 876.506,64.2422 Q876.506,66.3359 877.1935,67.4141 Q877.881,68.4766 879.2247,68.4766 Q879.8497,68.4766 880.4435,68.2109 Q881.0372,67.9297 881.6622,67.3516 L881.6622,70.0703 Z " fill="#000000"/><text fill="#000000" font-family="sans-serif" font-size="12" font-style="italic" lengthAdjust="spacing" textLength="57.668" x="907.3043" y="60.4355">&#171;service&#187;</text><text fill="#000000" font-family="sans-serif" font-size="14" lengthAdjust="spacing" textLength="73.8896" x="899.1935" y="76.2607">APIService</text><line style="stroke:#333333;stroke-width:0.5;" x1="693.38" x2="1146.3966" y1="84.5625" y2="84.5625"/><rect fill="none" height="6" style="stroke:#C82930;stroke-width:1;" width="6" x="700.38" y="95.2109"/><text fill="#000000" font-family="sans-serif" font-size="14" lengthAdjust="spacing" textLength="107.0713" x="712.38" y="101.5576">baseUrl : string</text><line style="stroke:#333333;stroke-width:0.5;" x1="693.38" x2="1146.3966" y1="108.8594" y2="108.8594"/><ellipse cx="703.38" cy="122.5078" fill="#84BE84" rx="3" ry="3" style="stroke:#038048;stroke-width:1;"/><text fill="#000000" font-family="sans-serif" font-size="14" lengthAdjust="spacing" textLength="187.4346" x="712.38" y="125.8545">APIService(baseUrl: string)</text><ellipse cx="703.38" cy="138.8047" fill="#84BE84" rx="3" ry="3" style="stroke:#038048;stroke-width:1;"/><text fill="#000000" font-family="sans-serif" font-size="14" lengthAdjust="spacing" textLength="353.6777" x="712.38" y="142.1514">inserir(pessoa: PessoaDTO) : Promise&lt;Response&gt;</text><ellipse cx="703.38" cy="155.1016" fill="#84BE84" rx="3" ry="3" style="stroke:#038048;stroke-width:1;"/><text fill="#000000" font-family="sans-serif" font-size="14" lengthAdjust="spacing" textLength="429.0166" x="712.38" y="158.4482">alterar(cpf: string, dados: PessoaDTO) : Promise&lt;Response&gt;</text><ellipse cx="703.38" cy="171.3984" fill="#84BE84" rx="3" ry="3" style="stroke:#038048;stroke-width:1;"/><text fill="#000000" font-family="sans-serif" font-size="14" lengthAdjust="spacing" textLength="302.1621" x="712.38" y="174.7451">remover(cpf: string) : Promise&lt;Response&gt;</text><ellipse cx="703.38" cy="187.6953" fill="#84BE84" rx="3" ry="3" style="stroke:#038048;stroke-width:1;"/><text fill="#000000" font-family="sans-serif" font-size="14" lengthAdjust="spacing" textLength="206.9648" x="712.38" y="191.042">listar() : Promise&lt;Response&gt;</text><ellipse cx="703.38" cy="203.9922" fill="#84BE84" rx="3" ry="3" style="stroke:#038048;stroke-width:1;"/><text fill="#000000" font-family="sans-serif" font-size="14" lengthAdjust="spacing" textLength="331.5566" x="712.38" y="207.3389">pesquisar(termo: string) : Promise&lt;Response&gt;</text><ellipse cx="703.38" cy="220.2891" fill="#84BE84" rx="3" ry="3" style="stroke:#038048;stroke-width:1;"/><text fill="#000000" font-family="sans-serif" font-size="14" lengthAdjust="spacing" textLength="320.3389" x="712.38" y="223.6357">readJsonSafe(res: Response) : Promise&lt;any&gt;</text></g><!--class PessoaDTO--><g class="entity" data-entity="PessoaDTO" data-source-line="28" data-uid="ent0003" id="entity_PessoaDTO"><rect fill="#FDFDFD" height="137.75" rx="2.5" ry="2.5" style="stroke:#333333;stroke-width:0.5;" width="307.0801" x="1208.4" y="393.7369"/><ellipse cx="1318.1202" cy="413.8697" fill="#ADD1B2" rx="11" ry="11" style="stroke:#181818;stroke-width:1;"/><path d="M1321.089,419.5103 Q1320.5108,419.8072 1319.8702,419.9478 Q1319.2296,420.1041 1318.5265,420.1041 Q1316.0265,420.1041 1314.6983,418.4634 Q1313.3858,416.8072 1313.3858,413.6822 Q1313.3858,410.5572 1314.6983,408.9009 Q1316.0265,407.2447 1318.5265,407.2447 Q1319.2296,407.2447 1319.8702,407.4009 Q1320.5265,407.5572 1321.089,407.8541 L1321.089,410.5728 Q1320.464,409.9947 1319.8702,409.7291 Q1319.2765,409.4478 1318.6515,409.4478 Q1317.3077,409.4478 1316.6202,410.5259 Q1315.9327,411.5884 1315.9327,413.6822 Q1315.9327,415.7759 1316.6202,416.8541 Q1317.3077,417.9166 1318.6515,417.9166 Q1319.2765,417.9166 1319.8702,417.6509 Q1320.464,417.3697 1321.089,416.7916 L1321.089,419.5103 Z " fill="#000000"/><text fill="#000000" font-family="sans-serif" font-size="12" font-style="italic" lengthAdjust="spacing" textLength="41.7129" x="1357.3336" y="409.8755">&#171;data&#187;</text><text fill="#000000" font-family="sans-serif" font-size="14" lengthAdjust="spacing" textLength="79.1396" x="1338.6202" y="425.7007">PessoaDTO</text><line style="stroke:#333333;stroke-width:0.5;" x1="1209.4" x2="1514.4801" y1="434.0025" y2="434.0025"/><ellipse cx="1219.4" cy="447.6509" fill="none" rx="3" ry="3" style="stroke:#038048;stroke-width:1;"/><text fill="#000000" font-family="sans-serif" font-size="14" lengthAdjust="spacing" textLength="75.3184" x="1228.4" y="450.9976">cpf : string</text><ellipse cx="1219.4" cy="463.9478" fill="none" rx="3" ry="3" style="stroke:#038048;stroke-width:1;"/><text fill="#000000" font-family="sans-serif" font-size="14" lengthAdjust="spacing" textLength="93.4951" x="1228.4" y="467.2945">nome : string</text><ellipse cx="1219.4" cy="480.2447" fill="none" rx="3" ry="3" style="stroke:#038048;stroke-width:1;"/><text fill="#000000" font-family="sans-serif" font-size="14" lengthAdjust="spacing" textLength="119.4238" x="1228.4" y="483.5914">endereco : string</text><ellipse cx="1219.4" cy="496.5416" fill="none" rx="3" ry="3" style="stroke:#038048;stroke-width:1;"/><text fill="#000000" font-family="sans-serif" font-size="14" lengthAdjust="spacing" textLength="281.0801" x="1228.4" y="499.8882">data_nascimento : string  ' YYYY-MM-DD</text><ellipse cx="1219.4" cy="512.8384" fill="none" rx="3" ry="3" style="stroke:#038048;stroke-width:1;"/><text fill="#000000" font-family="sans-serif" font-size="14" lengthAdjust="spacing" textLength="253.5244" x="1228.4" y="516.1851">foto : string             ' Base64 ou URL</text><line style="stroke:#333333;stroke-width:0.5;" x1="1209.4" x2="1514.4801" y1="523.4869" y2="523.4869"/></g><!--class FormUtils--><g class="entity" data-entity="FormUtils" data-source-line="39" data-uid="ent0004" id="entity_FormUtils"><rect fill="#FDFDFD" height="121.4531" rx="2.5" ry="2.5" style="stroke:#333333;stroke-width:0.5;" width="374.3389" x="732.72" y="401.8869"/><ellipse cx="882.2288" cy="422.0197" fill="#ADD1B2" rx="11" ry="11" style="stroke:#181818;stroke-width:1;"/><path d="M885.1975,427.6603 Q884.6194,427.9572 883.9788,428.0978 Q883.3382,428.2541 882.635,428.2541 Q880.135,428.2541 878.8069,426.6134 Q877.4944,424.9572 877.4944,421.8322 Q877.4944,418.7072 878.8069,417.0509 Q880.135,415.3947 882.635,415.3947 Q883.3382,415.3947 883.9788,415.5509 Q884.635,415.7072 885.1975,416.0041 L885.1975,418.7228 Q884.5725,418.1447 883.9788,417.8791 Q883.385,417.5978 882.76,417.5978 Q881.4163,417.5978 880.7288,418.6759 Q880.0413,419.7384 880.0413,421.8322 Q880.0413,423.9259 880.7288,425.0041 Q881.4163,426.0666 882.76,426.0666 Q883.385,426.0666 883.9788,425.8009 Q884.5725,425.5197 885.1975,424.9416 L885.1975,427.6603 Z " fill="#000000"/><text fill="#000000" font-family="sans-serif" font-size="12" font-style="italic" lengthAdjust="spacing" textLength="33.6621" x="919.3084" y="418.0255">&#171;util&#187;</text><text fill="#000000" font-family="sans-serif" font-size="14" lengthAdjust="spacing" textLength="66.8213" x="902.7288" y="433.8507">FormUtils</text><line style="stroke:#333333;stroke-width:0.5;" x1="733.72" x2="1106.0589" y1="442.1525" y2="442.1525"/><line style="stroke:#333333;stroke-width:0.5;" x1="733.72" x2="1106.0589" y1="450.1525" y2="450.1525"/><ellipse cx="743.72" cy="463.8009" fill="#84BE84" rx="3" ry="3" style="stroke:#038048;stroke-width:1;"/><text fill="#000000" font-family="sans-serif" font-size="14" lengthAdjust="spacing" textLength="259.7109" x="752.72" y="467.1476">validaCampos(ids: string[]) : boolean</text><ellipse cx="743.72" cy="480.0978" fill="#84BE84" rx="3" ry="3" style="stroke:#038048;stroke-width:1;"/><text fill="#000000" font-family="sans-serif" font-size="14" lengthAdjust="spacing" textLength="348.3389" x="752.72" y="483.4445">getFotoBase64(inputId: string) : Promise&lt;string&gt;</text><ellipse cx="743.72" cy="496.3947" fill="#84BE84" rx="3" ry="3" style="stroke:#038048;stroke-width:1;"/><text fill="#000000" font-family="sans-serif" font-size="14" lengthAdjust="spacing" textLength="250.9609" x="752.72" y="499.7414">coletaDados(ids: map) : PessoaDTO</text><ellipse cx="743.72" cy="512.6916" fill="#84BE84" rx="3" ry="3" style="stroke:#038048;stroke-width:1;"/><text fill="#000000" font-family="sans-serif" font-size="14" lengthAdjust="spacing" textLength="201.0449" x="752.72" y="516.0382">setBusy(flag: boolean) : void</text></g><!--class PessoasController--><g class="entity" data-entity="PessoasController" data-source-line="49" data-uid="ent0005" id="entity_PessoasController"><rect fill="#FDFDFD" height="202.9375" rx="2.5" ry="2.5" style="stroke:#333333;stroke-width:0.5;" width="546.3789" x="7" y="639.1469"/><ellipse cx="213.312" cy="659.2797" fill="#ADD1B2" rx="11" ry="11" style="stroke:#181818;stroke-width:1;"/><path d="M216.2808,664.9203 Q215.7026,665.2172 215.062,665.3578 Q214.4214,665.5141 213.7183,665.5141 Q211.2183,665.5141 209.8901,663.8734 Q208.5776,662.2172 208.5776,659.0922 Q208.5776,655.9672 209.8901,654.3109 Q211.2183,652.6547 213.7183,652.6547 Q214.4214,652.6547 215.062,652.8109 Q215.7183,652.9672 216.2808,653.2641 L216.2808,655.9828 Q215.6558,655.4047 215.062,655.1391 Q214.4683,654.8578 213.8433,654.8578 Q212.4995,654.8578 211.812,655.9359 Q211.1245,656.9984 211.1245,659.0922 Q211.1245,661.1859 211.812,662.2641 Q212.4995,663.3266 213.8433,663.3266 Q214.4683,663.3266 215.062,663.0609 Q215.6558,662.7797 216.2808,662.2016 L216.2808,664.9203 Z " fill="#000000"/><text fill="#000000" font-family="sans-serif" font-size="12" font-style="italic" lengthAdjust="spacing" textLength="72.1934" x="260.3428" y="655.2855">&#171;controller&#187;</text><text fill="#000000" font-family="sans-serif" font-size="14" lengthAdjust="spacing" textLength="125.2549" x="233.812" y="671.1107">PessoasController</text><line style="stroke:#333333;stroke-width:0.5;" x1="8" x2="552.3789" y1="679.4125" y2="679.4125"/><rect fill="none" height="6" style="stroke:#C82930;stroke-width:1;" width="6" x="15" y="690.0609"/><text fill="#000000" font-family="sans-serif" font-size="14" lengthAdjust="spacing" textLength="108.8623" x="27" y="696.4076">api : APIService</text><rect fill="none" height="6" style="stroke:#C82930;stroke-width:1;" width="6" x="15" y="706.3578"/><text fill="#000000" font-family="sans-serif" font-size="14" lengthAdjust="spacing" textLength="109.874" x="27" y="712.7045">utils : FormUtils</text><rect fill="none" height="6" style="stroke:#C82930;stroke-width:1;" width="6" x="15" y="722.6547"/><text fill="#000000" font-family="sans-serif" font-size="14" lengthAdjust="spacing" textLength="161.0137" x="27" y="729.0014">tabela : TableRenderer</text><line style="stroke:#333333;stroke-width:0.5;" x1="8" x2="552.3789" y1="736.3031" y2="736.3031"/><ellipse cx="18" cy="749.9516" fill="#84BE84" rx="3" ry="3" style="stroke:#038048;stroke-width:1;"/><text fill="#000000" font-family="sans-serif" font-size="14" lengthAdjust="spacing" textLength="520.3789" x="27" y="753.2982">PessoasController(api: APIService, utils: FormUtils, tabela: TableRenderer)</text><ellipse cx="18" cy="766.2484" fill="#84BE84" rx="3" ry="3" style="stroke:#038048;stroke-width:1;"/><text fill="#000000" font-family="sans-serif" font-size="14" lengthAdjust="spacing" textLength="195.5762" x="27" y="769.5951">onInserir() : Promise&lt;void&gt;</text><ellipse cx="18" cy="782.5453" fill="#84BE84" rx="3" ry="3" style="stroke:#038048;stroke-width:1;"/><text fill="#000000" font-family="sans-serif" font-size="14" lengthAdjust="spacing" textLength="198.9258" x="27" y="785.892">onAlterar() : Promise&lt;void&gt;</text><ellipse cx="18" cy="798.8422" fill="#84BE84" rx="3" ry="3" style="stroke:#038048;stroke-width:1;"/><text fill="#000000" font-family="sans-serif" font-size="14" lengthAdjust="spacing" textLength="214.4639" x="27" y="802.1889">onRemover() : Promise&lt;void&gt;</text><ellipse cx="18" cy="815.1391" fill="#84BE84" rx="3" ry="3" style="stroke:#038048;stroke-width:1;"/><text fill="#000000" font-family="sans-serif" font-size="14" lengthAdjust="spacing" textLength="218.8936" x="27" y="818.4857">onPesquisar() : Promise&lt;void&gt;</text><ellipse cx="18" cy="831.4359" fill="#84BE84" rx="3" ry="3" style="stroke:#038048;stroke-width:1;"/><text fill="#000000" font-family="sans-serif" font-size="14" lengthAdjust="spacing" textLength="190.0732" x="27" y="834.7826">onListar() : Promise&lt;void&gt;</text></g><!--class TableRenderer--><g class="entity" data-entity="TableRenderer" data-source-line="61" data-uid="ent0006" id="entity_TableRenderer"><rect fill="#FDFDFD" height="121.4531" rx="2.5" ry="2.5" style="stroke:#333333;stroke-width:0.5;" width="287.2627" x="776.26" y="679.8869"/><ellipse cx="863.9617" cy="700.0197" fill="#ADD1B2" rx="11" ry="11" style="stroke:#181818;stroke-width:1;"/><path d="M866.9304,705.6603 Q866.3523,705.9572 865.7117,706.0978 Q865.071,706.2541 864.3679,706.2541 Q861.8679,706.2541 860.5398,704.6134 Q859.2273,702.9572 859.2273,699.8322 Q859.2273,696.7072 860.5398,695.0509 Q861.8679,693.3947 864.3679,693.3947 Q865.071,693.3947 865.7117,693.5509 Q866.3679,693.7072 866.9304,694.0041 L866.9304,696.7228 Q866.3054,696.1447 865.7117,695.8791 Q865.1179,695.5978 864.4929,695.5978 Q863.1492,695.5978 862.4617,696.6759 Q861.7742,697.7384 861.7742,699.8322 Q861.7742,701.9259 862.4617,703.0041 Q863.1492,704.0666 864.4929,704.0666 Q865.1179,704.0666 865.7117,703.8009 Q866.3054,703.5197 866.9304,702.9416 L866.9304,705.6603 Z " fill="#000000"/><text fill="#000000" font-family="sans-serif" font-size="12" font-style="italic" lengthAdjust="spacing" textLength="42.3164" x="914.9831" y="696.0255">&#171;view&#187;</text><text fill="#000000" font-family="sans-serif" font-size="14" lengthAdjust="spacing" textLength="103.3594" x="884.4617" y="711.8507">TableRenderer</text><line style="stroke:#333333;stroke-width:0.5;" x1="777.26" x2="1062.5227" y1="720.1525" y2="720.1525"/><rect fill="none" height="6" style="stroke:#C82930;stroke-width:1;" width="6" x="784.26" y="730.8009"/><text fill="#000000" font-family="sans-serif" font-size="14" lengthAdjust="spacing" textLength="151.4297" x="796.26" y="737.1476">tbodySelector : string</text><line style="stroke:#333333;stroke-width:0.5;" x1="777.26" x2="1062.5227" y1="744.4494" y2="744.4494"/><ellipse cx="787.26" cy="758.0978" fill="#84BE84" rx="3" ry="3" style="stroke:#038048;stroke-width:1;"/><text fill="#000000" font-family="sans-serif" font-size="14" lengthAdjust="spacing" textLength="261.2627" x="796.26" y="761.4445">TableRenderer(tbodySelector: string)</text><ellipse cx="787.26" cy="774.3947" fill="#84BE84" rx="3" ry="3" style="stroke:#038048;stroke-width:1;"/><text fill="#000000" font-family="sans-serif" font-size="14" lengthAdjust="spacing" textLength="229.0381" x="796.26" y="777.7414">render(lista: PessoaDTO[]) : void</text><ellipse cx="787.26" cy="790.6916" fill="#84BE84" rx="3" ry="3" style="stroke:#038048;stroke-width:1;"/><text fill="#000000" font-family="sans-serif" font-size="14" lengthAdjust="spacing" textLength="245" x="796.26" y="794.0382">bindRowClick(p: PessoaDTO) : void</text></g><!--class DOMIds--><g class="entity" data-entity="DOMIds" data-source-line="68" data-uid="ent0007" id="entity_DOMIds"><rect fill="#FDFDFD" height="235.5313" rx="2.5" ry="2.5" style="stroke:#333333;stroke-width:0.5;" width="258.7637" x="790.51" y="925.8469"/><ellipse cx="888.5476" cy="945.9797" fill="#ADD1B2" rx="11" ry="11" style="stroke:#181818;stroke-width:1;"/><path d="M891.5163,951.6203 Q890.9382,951.9172 890.2976,952.0578 Q889.657,952.2141 888.9538,952.2141 Q886.4538,952.2141 885.1257,950.5734 Q883.8132,948.9172 883.8132,945.7922 Q883.8132,942.6672 885.1257,941.0109 Q886.4538,939.3547 888.9538,939.3547 Q889.657,939.3547 890.2976,939.5109 Q890.9538,939.6672 891.5163,939.9641 L891.5163,942.6828 Q890.8913,942.1047 890.2976,941.8391 Q889.7038,941.5578 889.0788,941.5578 Q887.7351,941.5578 887.0476,942.6359 Q886.3601,943.6984 886.3601,945.7922 Q886.3601,947.8859 887.0476,948.9641 Q887.7351,950.0266 889.0788,950.0266 Q889.7038,950.0266 890.2976,949.7609 Q890.8913,949.4797 891.5163,948.9016 L891.5163,951.6203 Z " fill="#000000"/><text fill="#000000" font-family="sans-serif" font-size="12" font-style="italic" lengthAdjust="spacing" textLength="51.4043" x="910.4397" y="941.9855">&#171;config&#187;</text><text fill="#000000" font-family="sans-serif" font-size="14" lengthAdjust="spacing" textLength="54.1885" x="909.0476" y="957.8107">DOMIds</text><line style="stroke:#333333;stroke-width:0.5;" x1="791.51" x2="1048.2737" y1="966.1125" y2="966.1125"/><ellipse cx="801.51" cy="979.7609" fill="none" rx="3" ry="3" style="stroke:#038048;stroke-width:1;"/><text fill="#000000" font-family="sans-serif" font-size="14" lengthAdjust="spacing" text-decoration="underline" textLength="74.2793" x="810.51" y="983.1076">CPF : "cpf"</text><ellipse cx="801.51" cy="996.0578" fill="none" rx="3" ry="3" style="stroke:#038048;stroke-width:1;"/><text fill="#000000" font-family="sans-serif" font-size="14" lengthAdjust="spacing" text-decoration="underline" textLength="108.6025" x="810.51" y="999.4045">NOME : "nome"</text><ellipse cx="801.51" cy="1012.3547" fill="none" rx="3" ry="3" style="stroke:#038048;stroke-width:1;"/><text fill="#000000" font-family="sans-serif" font-size="14" lengthAdjust="spacing" text-decoration="underline" textLength="170.4268" x="810.51" y="1015.7014">ENDERECO : "endereco"</text><ellipse cx="801.51" cy="1028.6516" fill="none" rx="3" ry="3" style="stroke:#038048;stroke-width:1;"/><text fill="#000000" font-family="sans-serif" font-size="14" lengthAdjust="spacing" text-decoration="underline" textLength="230.7402" x="810.51" y="1031.9982">DATA_NASC : "data_nascimento"</text><ellipse cx="801.51" cy="1044.9484" fill="none" rx="3" ry="3" style="stroke:#038048;stroke-width:1;"/><text fill="#000000" font-family="sans-serif" font-size="14" lengthAdjust="spacing" text-decoration="underline" textLength="92.6885" x="810.51" y="1048.2951">FOTO : "foto"</text><ellipse cx="801.51" cy="1061.2453" fill="none" rx="3" ry="3" style="stroke:#038048;stroke-width:1;"/><text fill="#000000" font-family="sans-serif" font-size="14" lengthAdjust="spacing" text-decoration="underline" textLength="158.8467" x="810.51" y="1064.592">PESQUISA : "pesquisa"</text><ellipse cx="801.51" cy="1077.5422" fill="none" rx="3" ry="3" style="stroke:#038048;stroke-width:1;"/><text fill="#000000" font-family="sans-serif" font-size="14" lengthAdjust="spacing" text-decoration="underline" textLength="130.7715" x="810.51" y="1080.8889">TBODY : "#tabela"</text><ellipse cx="801.51" cy="1093.8391" fill="none" rx="3" ry="3" style="stroke:#038048;stroke-width:1;"/><text fill="#000000" font-family="sans-serif" font-size="14" lengthAdjust="spacing" text-decoration="underline" textLength="185.6025" x="810.51" y="1097.1857">BTN_INSERIR : "btnInserir"</text><ellipse cx="801.51" cy="1110.1359" fill="none" rx="3" ry="3" style="stroke:#038048;stroke-width:1;"/><text fill="#000000" font-family="sans-serif" font-size="14" lengthAdjust="spacing" text-decoration="underline" textLength="196.8408" x="810.51" y="1113.4826">BTN_ALTERAR : "btnAlterar"</text><ellipse cx="801.51" cy="1126.4328" fill="none" rx="3" ry="3" style="stroke:#038048;stroke-width:1;"/><text fill="#000000" font-family="sans-serif" font-size="14" lengthAdjust="spacing" text-decoration="underline" textLength="218.3945" x="810.51" y="1129.7795">BTN_REMOVER : "btnRemover"</text><ellipse cx="801.51" cy="1142.7297" fill="none" rx="3" ry="3" style="stroke:#038048;stroke-width:1;"/><text fill="#000000" font-family="sans-serif" font-size="14" lengthAdjust="spacing" text-decoration="underline" textLength="232.7637" x="810.51" y="1146.0764">BTN_PESQUISAR : "btnPesquisar"</text><line style="stroke:#333333;stroke-width:0.5;" x1="791.51" x2="1048.2737" y1="1153.3781" y2="1153.3781"/></g><g class="entity" data-entity="GMN15" data-source-line="94" data-uid="ent0016" id="entity_GMN15"><path d="M743.45,1196.7869 L743.45,1282.4509 L1096.3245,1282.4509 L1096.3245,1206.7869 L1086.3245,1196.7869 L743.45,1196.7869" fill="#FEFFDD" style="stroke:#181818;stroke-width:0.5;"/><path d="M1086.3245,1196.7869 L1086.3245,1206.7869 L1096.3245,1206.7869 L1086.3245,1196.7869" fill="#FEFFDD" style="stroke:#181818;stroke-width:1;"/><text fill="#000000" font-family="sans-serif" font-size="13" lengthAdjust="spacing" textLength="283.4736" x="749.45" y="1213.8538">Respons&#225;vel por orquestrar as a&#231;&#245;es da UI:</text><text fill="#000000" font-family="sans-serif" font-size="13" lengthAdjust="spacing" textLength="229.7534" x="749.45" y="1228.9866">&#8226; onInserir / onAlterar / onRemover</text><text fill="#000000" font-family="sans-serif" font-size="13" lengthAdjust="spacing" textLength="155.6636" x="749.45" y="1244.1194">&#8226; onPesquisar / onListar</text><text fill="#000000" font-family="sans-serif" font-size="13" lengthAdjust="spacing" textLength="231.7656" x="749.45" y="1259.2522">&#8226; Interage com fetch via APIService</text><text fill="#000000" font-family="sans-serif" font-size="13" lengthAdjust="spacing" textLength="331.8745" x="749.45" y="1274.385">&#8226; L&#234;/escreve o DOM via FormUtils e TableRenderer</text></g><g class="entity" data-entity="GMN18" data-source-line="102" data-uid="ent0019" id="entity_GMN18"><path d="M740.25,266.2169 L740.25,367.0138 A0,0 0 0 0 740.25,367.0138 L1099.5166,367.0138 A0,0 0 0 0 1099.5166,367.0138 L1099.5166,276.2169 L1089.5166,266.2169 L923.89,266.2169 L919.89,231.3369 L915.89,266.2169 L740.25,266.2169 A0,0 0 0 0 740.25,266.2169" fill="#FEFFDD" style="stroke:#181818;stroke-width:0.5;"/><path d="M1089.5166,266.2169 L1089.5166,276.2169 L1099.5166,276.2169 L1089.5166,266.2169" fill="#FEFFDD" style="stroke:#181818;stroke-width:0.5;"/><text fill="#000000" font-family="sans-serif" font-size="13" lengthAdjust="spacing" textLength="189.23" x="746.25" y="283.2838">Encapsula chamadas fetch():</text><text fill="#000000" font-family="sans-serif" font-size="13" lengthAdjust="spacing" textLength="107.0659" x="746.25" y="298.4166">&#8226; POST /pessoas</text><text fill="#000000" font-family="sans-serif" font-size="13" lengthAdjust="spacing" textLength="143.127" x="746.25" y="313.5494">&#8226; PUT  /pessoas/{cpf}</text><text fill="#000000" font-family="sans-serif" font-size="13" lengthAdjust="spacing" textLength="163.5347" x="746.25" y="328.6822">&#8226; DELETE /pessoas/{cpf}</text><text fill="#000000" font-family="sans-serif" font-size="13" lengthAdjust="spacing" textLength="139.3501" x="746.25" y="343.815">&#8226; GET  /pessoas[?q=]</text><text fill="#000000" font-family="sans-serif" font-size="13" lengthAdjust="spacing" textLength="338.2666" x="746.25" y="358.9478">Inclui readJsonSafe() para lidar com 204/sem corpo.</text></g><g class="entity" data-entity="GMN21" data-source-line="111" data-uid="ent0022" id="entity_GMN21"><path d="M712.34,558.7869 L712.34,644.4509 A0,0 0 0 0 712.34,644.4509 L1127.4342,644.4509 A0,0 0 0 0 1127.4342,644.4509 L1127.4342,568.7869 L1117.4342,558.7869 L923.89,558.7869 L919.89,523.6369 L915.89,558.7869 L712.34,558.7869 A0,0 0 0 0 712.34,558.7869" fill="#FEFFDD" style="stroke:#181818;stroke-width:0.5;"/><path d="M1117.4342,558.7869 L1117.4342,568.7869 L1127.4342,568.7869 L1117.4342,558.7869" fill="#FEFFDD" style="stroke:#181818;stroke-width:0.5;"/><text fill="#000000" font-family="sans-serif" font-size="13" lengthAdjust="spacing" textLength="172.4277" x="718.34" y="575.8538">Fun&#231;&#245;es utilit&#225;rias da tela:</text><text fill="#000000" font-family="sans-serif" font-size="13" lengthAdjust="spacing" textLength="394.0942" x="718.34" y="590.9866">&#8226; validaCampos(['cpf','nome','endereco','data_nascimento'])</text><text fill="#000000" font-family="sans-serif" font-size="13" lengthAdjust="spacing" textLength="152.6992" x="718.34" y="606.1194">&#8226; getFotoBase64('foto')</text><text fill="#000000" font-family="sans-serif" font-size="13" lengthAdjust="spacing" textLength="207.7144" x="718.34" y="621.2522">&#8226; coletaDados(...) &#8594; PessoaDTO</text><text fill="#000000" font-family="sans-serif" font-size="13" lengthAdjust="spacing" textLength="250.853" x="718.34" y="636.385">&#8226; setBusy(true/false) desabilita bot&#245;es</text></g><g class="entity" data-entity="GMN24" data-source-line="119" data-uid="ent0025" id="entity_GMN24"><path d="M717.35,835.9169 L717.35,891.3153 A0,0 0 0 0 717.35,891.3153 L1122.4213,891.3153 A0,0 0 0 0 1122.4213,891.3153 L1122.4213,845.9169 L1112.4213,835.9169 L923.89,835.9169 L919.89,801.5569 L915.89,835.9169 L717.35,835.9169 A0,0 0 0 0 717.35,835.9169" fill="#FEFFDD" style="stroke:#181818;stroke-width:0.5;"/><path d="M1112.4213,835.9169 L1112.4213,845.9169 L1122.4213,845.9169 L1112.4213,835.9169" fill="#FEFFDD" style="stroke:#181818;stroke-width:0.5;"/><text fill="#000000" font-family="sans-serif" font-size="13" lengthAdjust="spacing" textLength="170.5869" x="723.35" y="852.9838">Renderiza tabela #tabela:</text><text fill="#000000" font-family="sans-serif" font-size="13" lengthAdjust="spacing" textLength="92.1807" x="723.35" y="868.1166">&#8226; render(lista)</text><text fill="#000000" font-family="sans-serif" font-size="13" lengthAdjust="spacing" textLength="384.0713" x="723.35" y="883.2494">&#8226; bindRowClick(p) &#8594; preenche formul&#225;rio ao clicar na linha</text></g><!--link PessoasController to APIService--><g class="link" data-entity-1="PessoasController" data-entity-2="APIService" data-source-line="85" data-uid="lnk8" id="link_PessoasController_APIService"><path codeLine="85" d="M347.02,638.8169 C420.77,530.9969 548.95,361.1169 692.38,248.6169 C699.96,242.6669 702.9355,240.2816 711.1355,234.7516" fill="none" id="PessoasController-to-APIService" style="stroke:#181818;stroke-width:1;"/><polygon fill="#181818" points="716.11,231.3969,706.4118,233.1127,711.9646,234.1925,710.8848,239.7453,716.11,231.3969" style="stroke:#181818;stroke-width:1;"/><text fill="#000000" font-family="sans-serif" font-size="13" lengthAdjust="spacing" textLength="22.9785" x="611.88" y="278.6838">usa</text></g><!--link PessoasController to FormUtils--><g class="link" data-entity-1="PessoasController" data-entity-2="FormUtils" data-source-line="86" data-uid="lnk9" id="link_PessoasController_FormUtils"><path codeLine="86" d="M479.86,638.7569 C546.65,606.0569 622.05,570.7869 692.38,541.6169 C706.9,535.5869 716.4584,531.7505 731.7584,525.9605" fill="none" id="PessoasController-to-FormUtils" style="stroke:#181818;stroke-width:1;"/><polygon fill="#181818" points="737.37,523.8369,727.5368,523.2812,732.6937,525.6066,730.3683,530.7634,737.37,523.8369" style="stroke:#181818;stroke-width:1;"/><text fill="#000000" font-family="sans-serif" font-size="13" lengthAdjust="spacing" textLength="22.9785" x="611.88" y="552.6838">usa</text></g><!--link PessoasController to TableRenderer--><g class="link" data-entity-1="PessoasController" data-entity-2="TableRenderer" data-source-line="87" data-uid="lnk10" id="link_PessoasController_TableRenderer"><path codeLine="87" d="M553.48,740.6169 C629.99,740.6169 704.15,740.6169 769.83,740.6169" fill="none" id="PessoasController-to-TableRenderer" style="stroke:#181818;stroke-width:1;"/><polygon fill="#181818" points="775.83,740.6169,766.83,736.6169,770.83,740.6169,766.83,744.6169,775.83,740.6169" style="stroke:#181818;stroke-width:1;"/><text fill="#000000" font-family="sans-serif" font-size="13" lengthAdjust="spacing" textLength="51.2827" x="597.38" y="736.6838">atualiza</text></g><!--link TableRenderer to PessoaDTO--><g class="link" data-entity-1="TableRenderer" data-entity-2="PessoaDTO" data-source-line="88" data-uid="lnk11" id="link_TableRenderer_PessoaDTO"><path codeLine="88" d="M1063.93,700.8569 C1092.57,690.1369 1121.72,677.1069 1147.4,661.6169 C1205.32,626.6669 1256.7839,578.4124 1296.7139,536.0624" fill="none" id="TableRenderer-to-PessoaDTO" style="stroke:#181818;stroke-width:1;stroke-dasharray:7,7;"/><polygon fill="#181818" points="1300.83,531.6969,1291.7455,535.5011,1297.3999,535.3348,1297.5662,540.9892,1300.83,531.6969" style="stroke:#181818;stroke-width:1;"/></g><!--link APIService to PessoaDTO--><g class="link" data-entity-1="APIService" data-entity-2="PessoaDTO" data-source-line="89" data-uid="lnk12" id="link_APIService_PessoaDTO"><path codeLine="89" d="M1121.6,231.3469 C1130.47,236.9269 1139.12,242.6869 1147.4,248.6169 C1205.66,290.3069 1258.4998,343.905 1298.8698,389.035" fill="none" id="APIService-to-PessoaDTO" style="stroke:#181818;stroke-width:1;stroke-dasharray:7,7;"/><polygon fill="#181818" points="1302.87,393.5069,1299.8509,384.1322,1299.5365,389.7803,1293.8884,389.4658,1302.87,393.5069" style="stroke:#181818;stroke-width:1;"/></g><!--link FormUtils to PessoaDTO--><g class="link" data-entity-1="FormUtils" data-entity-2="PessoaDTO" data-source-line="90" data-uid="lnk13" id="link_FormUtils_PessoaDTO"><path codeLine="90" d="M1107.51,462.6169 C1141,462.6169 1169.56,462.6169 1201.97,462.6169" fill="none" id="FormUtils-to-PessoaDTO" style="stroke:#181818;stroke-width:1;stroke-dasharray:7,7;"/><polygon fill="#181818" points="1207.97,462.6169,1198.97,458.6169,1202.97,462.6169,1198.97,466.6169,1207.97,462.6169" style="stroke:#181818;stroke-width:1;"/></g><!--link PessoasController to DOMIds--><g class="link" data-entity-1="PessoasController" data-entity-2="DOMIds" data-source-line="91" data-uid="lnk14" id="link_PessoasController_DOMIds"><path codeLine="91" d="M495.75,842.5669 C593.41,888.9669 700.3207,939.7618 784.6907,979.8518" fill="none" id="PessoasController-to-DOMIds" style="stroke:#181818;stroke-width:1;stroke-dasharray:7,7;"/><polygon fill="#181818" points="790.11,982.4269,783.6978,974.9514,785.5939,980.281,780.2643,982.1771,790.11,982.4269" style="stroke:#181818;stroke-width:1;"/><text fill="#000000" font-family="sans-serif" font-size="13" lengthAdjust="spacing" textLength="77.7969" x="584.38" y="888.6838">consulta ids</text></g><!--link PessoasController to GMN15--><g class="link" data-entity-1="PessoasController" data-entity-2="GMN15" data-source-line="94" data-uid="lnk17" id="link_PessoasController_GMN15"><path d="M350.56,842.5369 C424.02,942.7069 549.02,1092.6769 692.38,1178.6169 C708.18,1188.0869 725.48,1196.1169 743.24,1202.9269" fill="none" id="PessoasController-GMN15" style="stroke:#181818;stroke-width:1;stroke-dasharray:7,7;"/></g><!--SRC=[ZLVTRjis5BxNKn3jXMKqiRkrs8MHUd1iPNDXnvviRoYA8A2bOuUeJAeavQ8D0lHg3p3i1RgR0hlV4-HD-YGx92LPSk8coeKKde-7v_Sxj6Ow0J9WT2tfXf8OI3-XIe4Ytpx_ZTyCk0Ro1oo9_-jyF2BFo6kwfRD8ibGVaHNewEg8zCF5W4n1AK5LqqjWfOaMHBBrbIOnan1f9hZdgNUCfnJF8KiQlLjBaV6uBn8XoTCp-rGGaR62N7k4dDx13ioVaGWPWynNNxnuWKkXmqaEalpmtBlnlCQh0u_N87rqERPEpq1ksUrNeRw3ToRrfaCBZe2Sd2ZtrUrQIu_HBmKBcP0EKLeoliR5PvKTVYuln4qhPnpLCEcdDe2TF923-QI9UgPIR9Y2an1KAX3OjLjeea5IwKVfgj1rH68Q2_MexH8sOWkrxOV12LCQZpeCGBlVPqmX1etQY8SrIg3nQoNuZAx0bu0s5_Bg7ie_TXzA87gfI9kCHGp98t9NXWPJ5rDDyxmz8nY8Uiwus41z1JZM6aIYlcgqN7Ag8hR1Hja92McGD_WSZyV7Wu65haHDNdaQMECAVdf9H4OMuUWXfnUQ9KpVVf7i4IwV2Ran6nIwdE6xT7bB4nPJx81KA9_5gh3ixOL9mbA812Yto3NeCxJTsUXZWsPw6D-NPRVYSXpXVaq7fYITzWrDBRP8WKKfqAUP-kYl4hek3pMmhM3nuxjtCNnawbLVS2r5aY0zd9n4vJzb0zEKuUcxZhMBcOrVPnTBkwhf4XAAotEwJ21qzI6jMtSEyr5lLUsHqrbHUPJhsrFd64BmOSuHrN2R67LpUIydX4FoCE_uG_9fsSE74AExDE34c2KNufhX6DujWmzbOFLIn1zdaE0iGBQkzL1jdry3rebIMenl2QbIIQvYRSKOr9BnE1GVS7H5x_nqZm-Bkd8M3oRZOQnS9QpOEZVs6jLh5jsWhlxq33SzGNfuKXUSJyQ1aHYUs1C5vuCW3FeJ8ov8OmyowCrxb-UzMTzWzYXa3tescLjDXZtsHDDWzjjYEEiPSS71Uv3vwMJmniYVkkhQ4v_Epo-7vxCW78O6jDH5dTs3wutcGTWhS7cztOCBW_7azw30vNLt3wwmla2M5VZaeRuFqP7RhxV_mVVOxsw_7nztgyExGp953y1sfFazLBtUEuJg33dr4_NgWbQhMs6zYWLrmUxC-lhTiuqyhzmEyYnNMQ8fGPBrF2xmikRkNM9rbuQyVCxUVjb2Gb9iH27VPu0zHYMXYkHXnQc6bDhnldt-PqSzE6PBch7VUMfpL9a-AtDaOKL3RhQi0ItTkFiYsJ9QfLY36jt-smOLITW24SOx2zh51FPO5j_4E9kxl1HQethqkQ8tu15DCJYKH5TsL2XtljzqhaqdipbfkrkNSYkBEIbNsjVOzZTsVH2CWdbmd-INeBBZxS_lNrruGnub6QjVSfh4t6g9cRZI1kB7vo_R2l2QAsGgMeVTsOsSiupdsSdA-KzjghGP6zQQsan_sq0h6qSDGr7uAgW8F_SOft7HjBlhSxvX6AVX9DLXtcgrckJRdtzLIjH0YackPGRj5KtCNIu6HPV6LceyiWrxqD5wUjq7zb8nPNF-ScvMvu0piCxvphvK0l3e2l3Y9JTPOkzBX0hyPS4Yp08twU1Nj3JfVm00]--></g></svg>